<svg width="461" height="232" fill="none" xmlns="http://www.w3.org/2000/svg"><path d="M50 158.328c2.195 1.52 4.56 3.041 6.756 4.562 12.5 8.449 26.182 17.742 32.263 22.473 4.054 3.211 10.98 10.139 18.074 17.912 5.912 6.421 12.162 13.348 16.892 18.756 5.067 5.745 8.614 9.8 8.614 9.8s3.885-8.787 7.602-21.291c.844-2.872 1.689-6.083 2.533-9.293 1.352-5.745 4.223-14.87 7.433-25.346 6.587-20.615 15.371-45.792 21.114-57.958l2.872-5.745c10.135-19.263 30.236-49.34 30.236-49.34s-6.081-1.014-15.371-3.21c-8.446-2.028-19.426-4.732-30.743-8.45-12.162-3.886-24.662-8.955-34.966-14.869-25.844-15.038-54.391-30.753-62.5-35.146C58.953.507 58.108 0 58.108 0S49.83 29.063 40.033 54.24C37.33 61 34.628 67.59 31.925 73.165 18.92 99.187 12.5 107.636 9.121 110.508c-1.689 1.352-3.885 3.549-5.743 5.239L0 119.126s17.736 15.039 27.871 23.318c2.027 1.69 3.716 3.042 4.899 3.887 2.702 2.027 9.29 6.59 17.23 11.997z" fill="#33DAFF"/><path d="M163.511 134.334c8.489 0 15.371-6.885 15.371-15.377s-6.882-15.376-15.371-15.376-15.371 6.884-15.371 15.376c0 8.492 6.882 15.377 15.371 15.377z" fill="#FFD000"/><path d="M98.14 133.32c11.941 0 21.622-9.684 21.622-21.629 0-11.945-9.681-21.629-21.622-21.629-11.94 0-21.621 9.684-21.621 21.629 0 11.945 9.68 21.629 21.621 21.629z" fill="#DC75A4"/><path d="M58.276 110.846c0-21.122 16.554-37.681 39.02-37.681 12.669 0 21.621 3.886 29.392 10.476l-11.825 14.194c-5.236-4.393-10.304-6.759-17.398-6.759-10.473 0-18.412 8.787-18.412 20.108 0 11.659 8.108 20.108 19.594 20.108 4.899 0 8.615-1.014 11.487-3.042v-8.786h-14.19v-14.701h33.277v32.612c-7.601 6.252-18.243 11.152-31.418 11.152-22.804 0-39.527-15.546-39.527-37.681zm73.31 8.279c0-15.883 13.006-29.232 30.912-29.232 17.905 0 30.742 13.18 30.742 29.232 0 15.884-13.006 29.233-30.911 29.233s-30.743-13.18-30.743-29.233zm42.567 0c0-6.759-4.899-12.673-11.824-12.673-7.095 0-11.656 5.746-11.656 12.673 0 6.759 4.899 12.673 11.825 12.673 7.094 0 11.655-5.745 11.655-12.673z" fill="#000"/><path d="M107.431 53.733c13.34 0 24.155-10.818 24.155-24.163S120.771 5.407 107.431 5.407c-13.34 0-24.155 10.818-24.155 24.163S94.09 53.733 107.43 53.733z" fill="#EB2426"/><path d="M25.507 98.004c7.09 0 12.837-5.75 12.837-12.842 0-7.092-5.747-12.842-12.837-12.842s-12.838 5.75-12.838 12.842c0 7.093 5.748 12.842 12.838 12.842z" fill="#FFD000"/><path d="M102.026 204.626a6.758 6.758 0 006.756-6.759 6.758 6.758 0 10-13.513 0 6.758 6.758 0 006.757 6.759zM273.138 92.428v-8.956h-9.29V74.01h19.763v24.163c-5.068 4.224-11.993 5.745-19.594 5.745-18.243 0-26.183-11.997-26.183-25.515s7.94-25.515 26.183-25.515c6.418 0 13.513 1.014 19.932 6.252l-5.743 7.435c-4.561-3.042-9.46-3.886-14.189-3.886-10.135 0-14.696 6.928-14.696 15.883 0 8.956 4.561 15.884 14.696 15.884 4.222-.17 6.925-.845 9.121-2.028zm11.993-7.097c0-10.983 8.108-18.418 20.439-18.418 12.5 0 20.439 7.435 20.439 18.418 0 10.814-8.108 18.418-20.439 18.418-12.5 0-20.439-7.435-20.439-18.418zm29.898 0c0-5.745-3.209-9.97-9.459-9.97s-9.46 4.225-9.46 9.97c0 5.745 3.21 9.97 9.46 9.97 6.25 0 9.459-4.225 9.459-9.97zm13.007-33.794h11.148v37.005c0 2.872 0 5.745 2.703 5.745h1.351v8.448h-3.716c-11.486 0-11.486-8.617-11.486-13.18V51.538zm39.526 28.556c0-3.041-.675-5.07-6.25-5.07-3.716 0-7.094.508-11.148 2.197l-3.716-7.096c4.729-2.366 10.979-3.21 15.371-3.21 13.007 0 16.554 4.9 16.554 14.362v21.459h-11.149v-4.562c-1.858 4.224-6.081 5.407-10.472 5.407-6.926 0-13.345-3.379-13.345-11.659.338-10.645 12.5-12.842 24.155-11.828zm-7.77 15.039c5.068 0 7.77-2.704 7.77-5.746v-3.041c-4.054-.338-12.668-.169-12.668 4.731-.169 2.366 1.351 4.056 4.898 4.056zm33.277 7.603H381.92V67.927h11.149v3.717c2.027-3.041 5.067-4.73 9.29-4.73 11.487 0 16.047 6.758 16.047 17.741v18.08h-11.148v-18.08c0-5.745-1.689-9.293-7.095-9.293-5.405 0-7.094 3.548-7.094 9.293v18.08zm67.397-34.808v34.808c0 14.194-10.979 17.912-21.452 17.912-5.237 0-11.149-.845-16.554-3.887l4.223-7.773c4.223 2.366 8.108 3.042 12.331 3.042 6.081 0 10.473-2.873 10.473-9.463v-4.562c-2.027 3.211-5.912 5.576-11.487 5.576-10.304 0-17.736-6.928-17.736-18.418 0-11.49 7.432-18.418 17.736-18.418 5.575 0 9.291 2.535 11.487 5.576v-4.562h10.979v.169zm-20.101 27.374c5.912 0 9.122-4.225 9.122-9.97 0-5.745-3.21-9.97-9.122-9.97s-9.121 4.225-9.121 9.97c0 5.745 3.378 9.97 9.121 9.97zm-194.929 66.237h24.999v4.393h-30.067v-48.495h5.068v44.102zm32.77-42.75c1.858 0 3.209 1.52 3.209 3.21 0 1.859-1.52 3.211-3.209 3.211-1.859 0-3.21-1.521-3.21-3.211s1.52-3.21 3.21-3.21zm-2.365 13.011h4.729v33.963h-4.729v-33.963zm36.824 0h5.236l-14.189 33.963h-5.067l-14.189-33.963h5.236l11.486 28.725 11.487-28.725zm32.769 26.529l3.041 2.872c-3.21 3.38-7.939 5.238-14.189 5.238-10.304 0-16.385-7.434-16.385-17.742 0-10.138 6.081-17.742 16.385-17.742 9.628 0 16.385 6.421 16.385 19.601h-27.703c.169 6.59 4.392 11.659 11.318 11.659 5.236.338 8.783-1.859 11.148-3.886zm.169-11.49c-.507-6.59-4.392-11.66-11.317-11.66-6.926 0-10.811 5.07-11.318 11.66h22.635z" fill="#fff"/></svg>